<?xml version="1.0" standalone="no"?>
<!DOCTYPE svg PUBLIC "-//W3C//DTD SVG 20010904//EN"
 "http://www.w3.org/TR/2001/REC-SVG-20010904/DTD/svg10.dtd">
<svg version="1.0" xmlns="http://www.w3.org/2000/svg"
 width="300.000000pt" height="129.000000pt" viewBox="0 0 300.000000 129.000000"
 preserveAspectRatio="xMidYMid meet">
<metadata>
Created by potrace 1.10, written by Peter Selinger 2001-2011
</metadata>
<g transform="translate(0.000000,129.000000) scale(0.100000,-0.100000)"
fill="#000000" stroke="none">
<path d="M2166 1148 c-13 -7 -60 -8 -147 -4 -103 6 -133 4 -156 -8 -15 -8
-115 -102 -221 -209 -170 -172 -193 -199 -190 -224 3 -24 -1 -28 -23 -31 -47
-5 -63 -34 -65 -120 l-2 -77 -41 -3 -41 -3 0 79 c0 70 -3 81 -24 101 -44 41
-85 16 -101 -61 -7 -37 -25 -36 -25 1 0 56 -57 98 -99 72 -7 -5 -25 -4 -42 3
-22 8 -34 8 -48 -1 -11 -7 -23 -8 -32 -2 -30 19 -59 10 -80 -26 l-21 -35 -41
35 c-41 35 -70 44 -82 25 -4 -6 -13 -7 -23 -1 -9 4 -48 8 -87 9 -52 0 -75 -4
-88 -16 -17 -15 -21 -15 -49 1 -39 22 -53 22 -78 -5 -18 -19 -20 -35 -20 -135
0 -108 1 -115 25 -138 29 -30 35 -31 68 -4 l26 20 31 -23 c27 -19 34 -21 62
-10 22 8 36 8 51 1 14 -8 26 -8 43 2 19 10 29 10 50 0 22 -10 31 -9 51 5 14 9
28 25 30 35 3 10 7 19 10 19 2 0 25 -16 49 -34 39 -30 49 -33 68 -24 17 7 30
7 45 -1 15 -9 26 -9 42 -1 15 9 28 9 49 0 34 -14 60 -3 80 34 17 32 23 32 44
1 25 -39 53 -49 81 -31 21 14 26 14 55 0 23 -12 35 -13 43 -5 14 14 42 14 66
-1 15 -9 24 -7 49 11 l31 22 30 -22 c26 -19 33 -20 60 -10 22 10 34 10 50 1
37 -19 189 -11 239 14 42 21 43 21 75 2 23 -14 57 -20 125 -23 80 -3 97 -1
120 16 26 18 26 18 54 -2 l28 -21 28 21 c25 18 27 26 30 96 3 89 17 109 51 73
15 -16 25 -44 31 -87 9 -63 32 -99 64 -99 25 0 54 45 59 93 4 29 19 69 41 105
39 63 44 83 21 102 -11 9 -13 23 -9 49 6 36 3 39 -98 139 l-103 102 -3 87 c-5
120 -17 133 -121 133 -42 0 -85 -6 -95 -12z m184 -123 l0 -95 -53 0 c-47 0
-57 4 -84 33 -27 28 -32 41 -35 95 l-3 62 88 0 87 0 0 -95z m-287 78 l97 -6 0
-56 c0 -53 3 -60 39 -95 37 -36 41 -37 99 -35 l61 2 111 -106 110 -107 -172 0
-173 0 -177 177 -178 178 -178 -178 c-150 -150 -182 -177 -207 -177 -27 0 -13
17 175 205 l205 205 45 0 c25 0 89 -3 143 -7z m-175 -93 c-1 -5 -64 -77 -138
-160 -98 -109 -141 -150 -157 -150 -13 0 -23 1 -23 3 0 1 69 73 153 159 139
143 175 175 165 148z m172 -185 l145 -145 -32 -32 -32 -32 -21 27 c-40 50
-101 22 -105 -48 -1 -19 -5 -36 -8 -38 -4 -1 -22 24 -41 55 -33 55 -33 57 -15
74 30 27 26 96 -8 134 -37 42 -83 44 -123 5 -63 -60 -44 -136 42 -167 4 -2 -8
-36 -28 -77 l-35 -74 -21 21 -22 21 27 27 c32 32 34 47 7 74 -20 20 -37 24
-96 20 -62 -3 -59 2 144 228 36 39 68 72 71 72 4 0 71 -65 151 -145z m-140
-25 c13 -13 20 -33 20 -60 l0 -40 -60 0 -60 0 0 40 c0 45 27 80 60 80 11 0 29
-9 40 -20z m-310 -139 c0 -19 -20 -22 -42 -7 -22 16 -22 16 10 16 17 0 32 -4
32 -9z m892 -1 c6 0 3 -9 -7 -20 -17 -19 -19 -19 -37 -3 -14 13 -16 18 -6 25
7 4 19 6 26 3 8 -3 18 -5 24 -5z m-2082 -70 c0 -27 3 -50 8 -50 4 1 25 23 47
50 30 38 47 50 68 50 15 0 27 -4 27 -8 0 -4 -22 -30 -50 -57 -28 -27 -50 -52
-50 -56 0 -3 23 -32 52 -65 l52 -59 -29 -3 c-30 -4 -50 12 -102 83 l-22 30 -1
-57 c0 -53 -2 -58 -22 -58 -23 0 -23 2 -21 122 1 68 2 124 2 126 1 1 10 2 21
2 17 0 20 -7 20 -50z m230 -75 l0 -125 -25 0 -25 0 0 125 0 125 25 0 25 0 0
-125z m136 48 l72 -78 -5 78 -6 77 27 0 26 0 0 -130 c0 -72 -3 -130 -7 -130
-5 0 -39 36 -78 79 l-70 78 -3 -73 c-2 -65 -5 -74 -22 -74 -17 0 -19 10 -22
125 -2 70 1 125 6 125 5 0 42 -35 82 -77z m207 -51 c2 -120 2 -122 -20 -122
-23 0 -23 2 -23 126 0 121 1 125 21 122 19 -3 21 -10 22 -126z m97 63 l0 -65
53 0 52 0 -3 65 c-4 64 -3 65 22 65 l26 0 0 -125 0 -125 -26 0 c-25 0 -26 2
-21 40 l5 40 -54 0 -54 0 0 -40 c0 -36 -2 -40 -25 -40 l-25 0 0 125 0 125 25
0 c24 0 25 -2 25 -65z m469 41 c28 -26 29 -96 1 -121 -19 -17 -19 -18 6 -61
l26 -44 -30 0 c-24 0 -32 6 -47 40 -14 30 -24 40 -42 40 -20 0 -23 -5 -23 -40
0 -36 -2 -40 -25 -40 l-25 0 0 126 0 126 69 -4 c50 -2 75 -9 90 -22z m219 2
c-3 -20 -9 -23 -53 -23 l-50 0 -3 -42 -3 -42 48 -3 c35 -2 48 -7 48 -18 0 -11
-13 -16 -47 -18 -40 -3 -48 -6 -48 -23 0 -16 7 -19 55 -19 48 0 55 -2 55 -20
0 -18 -7 -20 -74 -20 l-75 0 -3 121 c-2 66 -1 123 1 125 2 2 38 4 78 4 71 0
74 -1 71 -22z m194 -103 l56 -125 -28 0 c-19 0 -29 6 -33 20 -4 17 -14 20 -57
20 -43 0 -53 -3 -57 -20 -4 -14 -14 -20 -34 -20 l-28 0 45 103 c25 56 50 112
55 125 4 12 12 22 17 22 4 0 33 -56 64 -125z m128 20 l0 -105 40 0 c33 0 40
-3 40 -20 0 -18 -7 -20 -65 -20 l-65 0 0 125 0 125 25 0 25 0 0 -105z m255 80
c0 -15 -7 -20 -29 -20 l-29 0 2 -102 2 -103 -25 0 -26 0 0 105 0 105 -30 -6
c-27 -6 -30 -4 -30 20 l0 27 83 -3 c74 -3 82 -5 82 -23z m89 -26 l29 -52 31
52 c25 42 36 51 58 51 16 0 28 -2 28 -5 0 -2 -20 -33 -45 -68 -40 -58 -45 -71
-45 -121 0 -53 -1 -56 -25 -56 -24 0 -25 3 -25 54 0 39 -6 62 -23 87 -12 19
-33 51 -46 72 l-23 37 29 0 c23 0 33 -8 57 -51z m-234 -96 l0 -53 -35 17 -35
17 0 70 0 70 35 -34 c31 -30 35 -39 35 -87z m-1650 15 c0 -30 -1 -31 -19 -14
-16 15 -18 22 -8 36 15 25 27 15 27 -22z m788 -94 c4 -27 -26 -40 -46 -20 -21
20 -8 48 20 44 14 -2 24 -11 26 -24z"/>
<path d="M1450 556 c0 -45 0 -46 33 -46 36 0 57 15 57 41 0 22 -18 35 -57 44
l-33 7 0 -46z"/>
<path d="M1890 513 c-8 -21 -16 -41 -18 -45 -2 -5 12 -8 32 -8 20 0 36 3 36 6
0 16 -24 84 -30 84 -3 0 -12 -17 -20 -37z"/>
<path d="M1636 288 c-9 -12 -16 -30 -16 -40 0 -21 3 -20 -73 -23 -64 -2 -87
-15 -69 -38 9 -11 45 -14 150 -16 75 0 198 -2 273 -3 101 -2 143 1 162 11 23
12 29 12 43 0 13 -11 64 -14 235 -15 198 -1 220 1 235 17 17 19 12 73 -9 86
-7 5 -48 11 -92 14 -44 4 -94 10 -112 13 -19 4 -45 1 -66 -8 -29 -12 -42 -12
-71 -2 -20 7 -39 15 -42 19 -4 4 -22 7 -40 7 -23 0 -37 -6 -44 -20 -8 -16 -17
-19 -33 -14 -12 4 -86 6 -165 6 -110 -2 -150 2 -172 13 -41 21 -76 19 -94 -7z
m74 -13 c17 -21 8 -50 -18 -53 -12 -2 -22 -10 -22 -18 0 -8 -4 -14 -10 -14
-11 0 -14 83 -3 93 11 12 40 8 53 -8z m466 1 c16 -13 17 -18 6 -36 -10 -17
-10 -25 -1 -36 9 -11 8 -14 -5 -14 -9 0 -16 7 -16 15 0 8 -4 15 -10 15 -5 0
-10 -7 -10 -15 0 -8 -4 -15 -10 -15 -5 0 -10 23 -10 50 0 42 3 50 18 50 10 0
27 -6 38 -14z m176 -73 c8 -10 6 -13 -5 -13 -11 0 -16 13 -19 46 -2 25 -1 48
2 51 3 3 6 -12 8 -33 2 -22 8 -44 14 -51z m37 39 c-13 -5 -11 -40 4 -45 7 -4
6 -6 -4 -6 -11 -1 -18 9 -21 27 -6 41 0 54 17 39 7 -7 9 -13 4 -15z m-322 -3
c-9 -6 -13 -17 -10 -29 3 -11 0 -20 -6 -20 -15 0 -14 57 2 63 19 7 31 -5 14
-14z m-316 -3 c-6 -7 -9 -21 -5 -30 3 -9 1 -16 -5 -16 -6 0 -11 14 -11 30 0
21 5 30 16 30 13 0 14 -3 5 -14z m77 -3 c2 -8 -5 -13 -17 -13 -12 0 -21 -5
-21 -11 0 -6 9 -8 21 -4 15 5 19 4 15 -4 -10 -16 -46 -13 -52 4 -10 25 4 47
28 43 12 -2 23 -9 26 -15z m102 -13 c0 -16 -4 -30 -10 -30 -5 0 -9 8 -7 18 1
9 -2 18 -8 19 -5 1 -9 -7 -7 -17 2 -11 -2 -20 -7 -20 -6 0 -11 11 -11 25 0 14
-4 25 -10 25 -5 0 -10 -11 -10 -25 0 -14 -4 -25 -10 -25 -5 0 -10 14 -10 30 0
29 2 30 45 30 43 0 45 -1 45 -30z m30 0 c0 -16 -4 -30 -10 -30 -5 0 -10 14
-10 30 0 17 5 30 10 30 6 0 10 -13 10 -30z m68 13 c2 -8 -6 -13 -23 -13 -16 0
-24 -4 -20 -10 4 -6 16 -8 27 -4 14 4 18 2 14 -5 -10 -16 -46 -13 -52 4 -10
25 4 47 28 43 12 -2 23 -9 26 -15z m222 2 c0 -8 -9 -15 -21 -15 -11 0 -18 -4
-14 -10 3 -5 12 -7 20 -3 8 3 15 0 15 -6 0 -17 -47 -13 -54 4 -9 25 4 45 30
45 15 0 24 -6 24 -15z m62 -15 c4 -27 2 -30 -24 -30 -34 0 -39 29 -6 38 21 5
21 6 2 13 -18 7 -18 8 2 8 17 1 23 -6 26 -29z m153 0 c0 -20 -6 -26 -26 -28
-17 -2 -29 3 -32 12 -11 28 4 47 32 44 20 -2 26 -8 26 -28z m36 16 c-6 -7 -9
-21 -5 -30 3 -9 1 -16 -5 -16 -6 0 -11 14 -11 30 0 21 5 30 16 30 13 0 14 -3
5 -14z m51 5 c-10 -6 -10 -10 2 -21 20 -16 11 -30 -17 -30 -18 0 -19 2 -7 11
11 8 12 12 3 16 -22 8 -14 33 10 33 15 0 18 -3 9 -9z"/>
<path d="M1670 249 c0 -24 23 -21 28 4 2 10 -3 17 -12 17 -10 0 -16 -9 -16
-21z"/>
<path d="M2130 250 c0 -15 5 -20 18 -18 9 2 17 10 17 18 0 8 -8 16 -17 18 -13
2 -18 -3 -18 -18z"/>
</g>
</svg>
